Patient4_TMGait_0pt6_02_left_42_GRF.mot
version=1
nRows=26
nColumns=19
inDegrees=no
endheader
time	F1x	F1y	F1z	M1x	M1y	M1z	F2x	F2y	F2z	M2x	M2y	M2z	EC1x	EC1y	EC1z	EC2x	EC2y	EC2z
51.29	-13.656	3.344	-5.8493	-1.0114	0.22246	5.7501	-20.0037	744.8016	-62.4191	277.381	77.8203	842.1323	-0.0592	0.0182	-0.0073	-0.0462	0.0165	0.9585
51.3021	-9.2137	3.1774	-3.8759	-1.0145	0.060044	4.9382	-20.3473	740.6807	-61.7283	275.143	76.3943	834.6125	-0.0592	0.0182	-0.0073	-0.0462	0.0165	0.9585
51.3141	-5.4895	3.0696	-2.1997	-1.0442	-0.099854	4.3176	-20.1847	736.6359	-61.0068	273.0287	74.7681	826.6687	-0.0592	0.0182	-0.0073	-0.0462	0.0165	0.9585
51.3262	-2.6792	3.0148	-0.90799	-1.0908	-0.24264	3.8989	-19.5145	733.4106	-60.3382	271.3469	73.0662	819.2311	-0.0592	0.0182	-0.0073	-0.0462	0.0165	0.9585
51.3383	-0.76182	3.0083	-0.014006	-1.1471	-0.34979	3.6683	-18.4167	731.6027	-59.7724	270.32	71.3906	813.0386	-0.0592	0.0182	-0.0073	-0.0462	0.0165	0.9585
51.3504	0.38868	3.0339	0.55093	-1.2032	-0.44267	3.5789	-17.0192	731.5007	-59.3528	270.0391	69.8349	808.4758	-0.0592	0.0182	-0.0073	-0.0462	0.0165	0.9585
51.3624	0.96039	3.0663	0.85404	-1.2457	-0.51944	3.5682	-15.4349	733.056	-59.0648	270.4648	68.4206	805.542	-0.0592	0.0182	-0.0073	-0.0462	0.0165	0.9585
51.3745	1.1195	3.0633	0.98227	-1.2553	-0.59439	3.5602	-13.7257	735.9376	-58.8915	271.451	67.1427	803.9067	-0.0592	0.0182	-0.0073	-0.0462	0.0165	0.9585
51.3866	1.0243	2.9481	1.0026	-1.2047	-0.66713	3.4204	-11.8825	739.6078	-58.7688	272.779	65.9318	802.9928	-0.0592	0.0182	-0.0073	-0.0462	0.0165	0.9585
51.3986	0.7787	2.6086	0.97097	-1.0566	-0.74435	3.0122	-9.8362	743.401	-58.6467	274.1846	64.7117	802.0831	-0.0592	0.0182	-0.0073	-0.0462	0.0165	0.9585
51.4107	0.48551	1.9066	0.92177	-0.76383	-0.82222	2.1487	-7.4882	746.6071	-58.4494	275.3913	63.3723	800.415	-0.0592	0.0182	-0.0073	-0.0462	0.0165	0.9585
51.4228	0.18582	0.71041	0.87292	-0.27876	-0.89979	0.67377	-4.7407	748.5606	-58.1317	276.143	61.82	797.2888	-0.0592	0.0182	-0.0073	-0.0462	0.0165	0.9585
51.4349	-0.045383	-1.0909	0.8317	0.43826	-0.95872	-1.55	-1.5302	748.7726	-57.6548	276.2494	59.9765	792.2147	-0.0592	0.0182	-0.0073	-0.0462	0.0165	0.9585
51.4469	-0.17116	-3.5112	0.77991	1.3929	-0.96034	-4.5267	2.172	746.9941	-57.0313	275.6076	57.8302	784.9718	-0.0592	0.0182	-0.0073	-0.0462	0.0165	0.9585
51.459	-0.10897	-6.4294	0.70274	2.5356	-0.8534	-8.1158	6.3165	743.2653	-56.2995	274.2189	55.4217	775.6654	-0.0592	0.0182	-0.0073	-0.0462	0.0165	0.9585
51.4711	0.2036	-9.4794	0.56764	3.7208	-0.56994	-11.8533	10.811	737.857	-55.5547	272.1644	52.8689	764.6625	-0.0592	0.0182	-0.0073	-0.0462	0.0165	0.9585
51.4831	0.87884	-11.9688	0.34288	4.6715	-0.02855	-14.8987	15.4744	731.1726	-54.9126	269.5727	50.3427	752.4946	-0.0592	0.0182	-0.0073	-0.0462	0.0165	0.9585
51.4952	1.9918	-12.7353	-0.013089	4.9322	0.85522	-15.8235	20.0949	723.6743	-54.5032	266.5966	48.0391	739.7534	-0.0592	0.0182	-0.0073	-0.0462	0.0165	0.9585
51.5073	3.6336	-10.0829	-0.5305	3.8419	2.1507	-12.5621	24.4627	715.8051	-54.4383	263.3885	46.1362	726.9922	-0.0592	0.0182	-0.0073	-0.0462	0.0165	0.9585
51.5194	5.7965	-1.7464	-1.225	0.52407	3.8723	-2.3173	28.3962	707.8844	-54.7497	260.0688	44.7302	714.6086	-0.0592	0.0182	-0.0073	-0.0462	0.0165	0.9585
51.5314	8.3664	14.971	-2.0666	-6.0653	5.9323	18.239	31.7745	700.0016	-55.3906	256.6865	43.8262	702.7458	-0.0592	0.0182	-0.0073	-0.0462	0.0165	0.9585
51.5435	10.9958	42.8879	-2.9621	-17.0093	8.0772	52.6128	34.4942	691.8501	-56.1985	253.1569	43.3107	691.1431	-0.0592	0.0182	-0.0073	-0.0462	0.0165	0.9585
51.5556	13.0575	84.3011	-3.7253	-33.177	9.8217	103.6526	36.4953	682.5961	-56.9321	249.2111	42.9826	678.9953	-0.0592	0.0182	-0.0073	-0.0462	0.0165	0.9585
51.5676	13.5083	139.9376	-4.0446	-54.8134	10.363	172.2965	37.7287	670.9089	-57.2655	244.4028	42.5545	664.9979	-0.0592	0.0182	-0.0073	-0.0462	0.0165	0.9585
51.5797	10.8893	207.459	-3.4497	-80.9609	8.537	255.7173	38.178	655.0712	-56.8361	238.1498	41.6979	647.4457	-0.0592	0.0182	-0.0073	-0.0462	0.0165	0.9585
51.5918	3.9954	280.3507	-1.2495	-109.0296	3.0571	345.9259	37.8417	633.3157	-55.2999	229.8501	40.1003	624.57	-0.0592	0.0182	-0.0073	-0.0462	0.0165	0.9585
